<?xml version="1.0" encoding="UTF-8"?><svg id="Layer_1" xmlns="http://www.w3.org/2000/svg" viewBox="0 0 1178.14 1178.14"><defs><style>.cls-1{fill:#231f20;stroke-width:0px;}</style></defs><polygon class="cls-1" points="644.47 1176.27 644.47 1086.43 0 441.95 0 535.54 642.6 1178.14 644.47 1176.27 644.47 1176.27"/><polygon class="cls-1" points="66.17 668.89 0 602.72 0 1178.13 66.17 1178.14 66.17 668.89 66.17 668.89"/><polygon class="cls-1" points="592.54 397.04 66.17 .39 66.17 0 65.66 0 65.66 0 65.66 0 0 0 0 375.78 66.17 441.95 66.17 83.25 482.58 397.04 592.54 397.04 592.54 397.04"/><polygon class="cls-1" points="132.35 508.12 644.47 508.12 644.47 441.95 66.18 441.95 132.35 508.12 132.35 508.12"/><polygon class="cls-1" points="533.67 1.87 533.67 91.72 1178.14 736.19 1178.14 642.6 535.54 0 533.67 1.87 533.67 1.87"/><polygon class="cls-1" points="1111.97 509.25 1178.14 575.42 1178.14 0 1111.97 0 1111.97 509.25 1111.97 509.25"/><polygon class="cls-1" points="585.6 781.11 1111.96 1177.75 1111.96 1178.14 1112.48 1178.14 1112.48 1178.14 1112.48 1178.14 1178.14 1178.14 1178.14 802.36 1111.96 736.19 1111.96 1094.89 695.56 781.11 585.6 781.11 585.6 781.11"/><polygon class="cls-1" points="1045.79 670.02 533.67 670.02 533.67 736.19 1111.96 736.19 1045.79 670.02 1045.79 670.02"/></svg>