<?xml version="1.0" encoding="utf-8"?>
<!-- Generator: Adobe Illustrator 28.1.0, SVG Export Plug-In . SVG Version: 6.00 Build 0)  -->
<svg version="1.1" id="Layer_1" xmlns="http://www.w3.org/2000/svg" xmlns:xlink="http://www.w3.org/1999/xlink" x="0px" y="0px"
	 viewBox="0 0 1178.1 1178.1" style="enable-background:new 0 0 1178.1 1178.1;" xml:space="preserve">
<style type="text/css">
	.st0{fill:#FFFFFF;}
</style>
<g>
	<polygon class="st0" points="644.5,1176.3 644.5,1086.4 0,442 0,535.5 642.6,1178.1 644.5,1176.3 	"/>
	<polygon class="st0" points="66.2,668.9 0,602.7 0,1178.1 66.2,1178.1 66.2,668.9 	"/>
	<polygon class="st0" points="592.5,397 66.2,0.4 66.2,0 65.7,0 65.7,0 65.7,0 0,0 0,375.8 66.2,441.9 66.2,83.2 482.6,397 
		592.5,397 	"/>
	<polygon class="st0" points="132.3,508.1 644.5,508.1 644.5,442 66.2,442 132.3,508.1 	"/>
	<polygon class="st0" points="533.7,1.9 533.7,91.7 1178.1,736.2 1178.1,642.6 535.5,0 533.7,1.9 	"/>
	<polygon class="st0" points="1112,509.2 1178.1,575.4 1178.1,0 1112,0 1112,509.2 	"/>
	<polygon class="st0" points="585.6,781.1 1112,1177.8 1112,1178.1 1112.5,1178.1 1112.5,1178.1 1112.5,1178.1 1178.1,1178.1 
		1178.1,802.4 1112,736.2 1112,1094.9 695.6,781.1 585.6,781.1 	"/>
	<polygon class="st0" points="1045.8,670 533.7,670 533.7,736.2 1112,736.2 1045.8,670 	"/>
</g>
</svg>
