<?xml version="1.0" encoding="utf-8"?>
<!-- Generator: Adobe Illustrator 28.1.0, SVG Export Plug-In . SVG Version: 6.00 Build 0)  -->
<svg version="1.1" id="Layer_1" xmlns="http://www.w3.org/2000/svg" xmlns:xlink="http://www.w3.org/1999/xlink" x="0px" y="0px"
	 viewBox="0 0 541.4 541.4" style="enable-background:new 0 0 541.4 541.4;" xml:space="preserve">
<style type="text/css">
	.st0{fill:#00BCE7;}
	.st1{fill:#EF509C;}
	.st2{fill:#C02F86;}
	.st3{fill:#89CDA7;}
	.st4{fill:#BFD857;}
</style>
<g>
	<polygon class="st1" points="296.2,540.6 296.2,499.3 0,203.1 0,246.1 295.3,541.4 296.2,540.6 	"/>
	<polygon class="st1" points="30.4,307.4 0,277 0,541.4 30.4,541.4 30.4,307.4 	"/>
	<polygon class="st2" points="272.3,182.5 30.4,0.2 30.4,0 30.2,0 30.2,0 30.2,0 0,0 0,172.7 30.4,203.1 30.4,38.3 221.8,182.5 
		272.3,182.5 	"/>
	<polygon class="st2" points="60.8,233.5 296.2,233.5 296.2,203.1 30.4,203.1 60.8,233.5 	"/>
	<polygon class="st3" points="245.3,0.9 245.3,42.1 541.4,338.3 541.4,295.3 246.1,0 245.3,0.9 	"/>
	<polygon class="st3" points="511,234 541.4,264.4 541.4,0 511,0 511,234 	"/>
	<polygon class="st4" points="269.1,359 511,541.3 511,541.4 511.3,541.4 511.3,541.4 511.3,541.4 541.4,541.4 541.4,368.7 
		511,338.3 511,503.2 319.7,359 269.1,359 	"/>
	<polygon class="st4" points="480.6,307.9 245.3,307.9 245.3,338.3 511,338.3 480.6,307.9 	"/>
</g>
</svg>
