<svg xmlns="http://www.w3.org/2000/svg" viewBox="0 0 512 512">
<path d="M234 352 L234 373 L255 373 L255 352 Z" fill="#E94591"/>
<path d="M192 352 L192 373 L213 373 L213 352 Z" fill="#E94591"/>
<path d="M202 309 L202 330 L223 330 L223 309 Z" fill="#E94591"/>
<path d="M160 309 L160 330 L181 330 L181 309 Z" fill="#E94591"/>
<path d="M181 256 L181 277 L202 277 L202 256 Z" fill="#E94591"/>
<path d="M138 256 L138 277 L159 277 L159 256 Z" fill="#E94591"/>
<path d="M43 261 L42 406 L43 410 L47 414 L255 415 L255 394 L64 394 L64 373 L159 373 L159 352 L64 352 L64 330 L138 330 L138 309 L63 308 L64 277 L117 277 L117 256 L49 256 Z" fill="#E94591"/>
<path d="M348 195 L333 210 L345 227 L351 245 L351 266 L349 274 L342 289 L333 300 L348 316 L359 303 L367 288 L371 275 L373 261 L372 241 L367 223 L359 208 Z" fill="#E94591"/>
<path d="M42 179 L42 225 L44 230 L50 234 L287 234 L287 213 L63 212 L64 191 L287 191 L287 170 L51 170 L45 173 Z" fill="#E94591"/>
<path d="M213 74 L213 95 L234 95 L234 74 Z" fill="#E94591"/>
<path d="M170 74 L170 95 L191 95 L191 74 Z" fill="#E94591"/>
<path d="M53 82 L53 106 L74 106 L75 95 L149 95 L149 74 L62 74 L57 76 Z" fill="#E94591"/>
<path d="M288 32 L288 53 L309 53 L311 55 L314 81 L318 87 L351 97 L383 114 L393 113 L415 97 L446 128 L430 150 L429 160 L446 192 L456 225 L462 229 L488 232 L490 234 L490 277 L488 279 L462 282 L456 286 L444 324 L429 351 L430 361 L446 383 L415 414 L393 398 L383 397 L351 414 L318 424 L314 430 L311 456 L309 458 L288 458 L288 479 L324 479 L328 476 L330 472 L333 447 L336 441 L362 433 L386 420 L409 438 L416 440 L420 439 L470 390 L472 385 L471 379 L452 354 L465 330 L473 304 L479 301 L504 298 L508 296 L511 292 L511 219 L508 215 L504 213 L479 210 L473 207 L465 181 L452 157 L470 134 L472 127 L471 123 L422 73 L417 71 L411 72 L386 91 L362 78 L336 70 L333 64 L330 39 L328 35 L324 32 Z" fill="#E94591"/>
<path d="M23 40 L8 55 L0 75 L0 436 L8 456 L23 471 L43 479 L266 479 L266 458 L47 458 L37 454 L27 445 L21 432 L21 150 L298 149 L318 153 L329 157 L354 172 L371 189 L386 214 L390 225 L394 245 L394 266 L390 286 L386 297 L371 322 L354 339 L339 349 L321 357 L305 361 L288 362 L288 383 L303 383 L319 380 L337 374 L353 366 L369 355 L387 337 L398 321 L408 300 L415 271 L415 240 L413 228 L408 211 L398 190 L387 174 L369 156 L358 148 L337 137 L315 130 L303 128 L21 127 L21 79 L27 66 L34 59 L47 53 L266 53 L266 32 L43 32 Z" fill="#E94591"/>
</svg>